HIERARCHY
ROOT Hips
{
	OFFSET -3.958830 18.904000 13.208200
	CHANNELS 6 Xposition Yposition Zposition Zrotation Yrotation Xrotation 
	JOINT LHipJoint
	{
		OFFSET 0.000000 0.000000 0.000000
		CHANNELS 3 Zrotation Yrotation Xrotation
		JOINT LeftUpLeg
		{
			OFFSET 1.800000 -1.400000 0.085000
			CHANNELS 3 Zrotation Yrotation Xrotation
			JOINT LeftLeg
			{
				OFFSET 2.215000 -6.000000 0.000000
				CHANNELS 3 Zrotation Yrotation Xrotation
				JOINT LeftFoot
				{
					OFFSET 2.500000 -6.900000 0.000000
					CHANNELS 3 Zrotation Yrotation Xrotation
					JOINT LeftToeBase
					{
						OFFSET 0.200000 -0.500000 1.950000
						CHANNELS 3 Zrotation Yrotation Xrotation
						End Site
						{
							OFFSET 0.000000 0.000000 0.000000
						}
					}
				}
			}
		}
	}
	JOINT RHipJoint
	{
		OFFSET 0.000000 0.000000 0.000000
		CHANNELS 3 Zrotation Yrotation Xrotation
		JOINT RightUpLeg
		{
			OFFSET -1.800000 -1.400000 0.085000
			CHANNELS 3 Zrotation Yrotation Xrotation
			JOINT RightLeg
			{
				OFFSET -2.215000 -6.000000 0.000000
				CHANNELS 3 Zrotation Yrotation Xrotation
				JOINT RightFoot
				{
					OFFSET -2.500000 -6.900000 0.000000
					CHANNELS 3 Zrotation Yrotation Xrotation
					JOINT RightToeBase
					{
						OFFSET -0.200000 -0.500000 1.950000
						CHANNELS 3 Zrotation Yrotation Xrotation
						End Site
						{
							OFFSET 0.000000 0.000000 0.000000
						}
					}
				}
			}
		}
	}
	JOINT LowerBack
	{
		OFFSET 0.000000 0.000000 0.000000
		CHANNELS 3 Zrotation Yrotation Xrotation
		JOINT Spine
		{
			OFFSET -0.087000 1.940000 -0.288900
			CHANNELS 3 Zrotation Yrotation Xrotation
			JOINT Spine1
			{
				OFFSET 0.000000 1.950000 0.060000
				CHANNELS 3 Zrotation Yrotation Xrotation
				JOINT Neck
				{
					OFFSET 0.000000 0.000000 0.000000
					CHANNELS 3 Zrotation Yrotation Xrotation
					JOINT Neck1
					{
						OFFSET 0.000000 1.600000 0.340000
						CHANNELS 3 Zrotation Yrotation Xrotation
						JOINT Head
						{
							OFFSET 0.000000 1.667000 -0.240000
							CHANNELS 3 Zrotation Yrotation Xrotation
							End Site
							{
								OFFSET 0.000000 0.000000 0.000000
							}
						}
					}
				}
				JOINT LeftShoulder
				{
					OFFSET 0.000000 0.000000 0.000000
					CHANNELS 3 Zrotation Yrotation Xrotation
					JOINT LeftArm
					{
						OFFSET 2.700000 1.550000 -0.730000
						CHANNELS 3 Zrotation Yrotation Xrotation
						JOINT LeftForeArm
						{
							OFFSET 5.450000 0.000000 0.000000
							CHANNELS 3 Zrotation Yrotation Xrotation
							JOINT LeftHand
							{
								OFFSET 3.450000 0.000000 0.000000
								CHANNELS 3 Zrotation Yrotation Xrotation
								JOINT LeftHandIndex1
								{
									OFFSET 0.750000 0.000000 0.000000
									CHANNELS 3 Zrotation Yrotation Xrotation
									End Site
									{
										OFFSET 0.000000 0.000000 0.000000
									}
								}
							}
						}
					}
				}
				JOINT RightShoulder
				{
					OFFSET 0.000000 0.000000 0.000000
					CHANNELS 3 Zrotation Yrotation Xrotation
					JOINT RightArm
					{
						OFFSET -2.700000 1.550000 -0.730000
						CHANNELS 3 Zrotation Yrotation Xrotation
						JOINT RightForeArm
						{
							OFFSET -5.450000 0.000000 0.000000
							CHANNELS 3 Zrotation Yrotation Xrotation
							JOINT RightHand
							{
								OFFSET -3.450000 0.000000 0.000000
								CHANNELS 3 Zrotation Yrotation Xrotation
								JOINT RightHandIndex1
								{
									OFFSET -0.750000 0.000000 0.000000
									CHANNELS 3 Zrotation Yrotation Xrotation
									End Site
									{
										OFFSET 0.000000 0.000000 0.000000
									}
								}
							}
						}
					}
				}
			}
		}
	}
}
MOTION
Frames: 7
Frame Time: 0.016667
0.131770 17.599630 -4.438010 -3.213536 -4.541259 -7.557813 -15.100009 12.638034 3.645723 2.948929 -6.438714 -27.639082 1.263504 9.047045 53.458220 -0.229527 10.010553 1.193180 0.115630 -0.144070 -0.228880 18.481202 -10.258330 3.211370 3.195797 7.384414 -23.977413 -2.780484 -7.772366 54.298866 -1.438833 -8.091207 1.412921 0.090400 0.994750 0.683040 -3.933801 -1.747193 -8.136296 13.387560 -3.372741 35.849178 -7.733233 1.925645 9.286821 1.507426 -5.952059 -7.398170 -12.003362 1.509974 29.361980 -0.929420 -2.957400 -30.000850 -4.036147 -21.271501 -1.826697 -5.844360 -35.316647 -1.348165 -25.192261 -85.659796 19.388833 -4.037541 2.981655 1.028550 0.337970 0.138630 0.381370 0.034768 25.097904 5.740178 5.723763 16.932069 -11.947975 170.700849 77.520958 161.898706 1.287736 -1.154250 -0.543840 0.798230 0.527840 0.042880 
0.128570 17.483760 -4.465140 -2.933615 -4.853233 -8.991227 -15.086973 12.688954 3.568943 2.025966 -6.335516 -26.700174 3.120478 8.305971 55.123779 -0.175323 10.084751 1.146941 0.209330 -0.010140 -0.182080 18.487852 -10.318094 3.218313 3.216877 7.507707 -23.139703 -3.002320 -7.747359 55.530812 -1.544515 -8.290486 1.343916 0.150600 0.923760 0.687870 -3.956923 -1.682335 -8.095791 13.126770 -3.416236 37.820157 -8.042840 2.093478 9.864005 1.318742 -6.076625 -7.163132 -12.228198 1.075089 29.149759 -0.222150 -3.243040 -32.283770 -3.559469 -21.774292 -2.648338 -4.039873 -35.762582 -3.133691 -10.464158 -84.054688 6.331536 -3.938795 2.927143 1.047260 0.288240 0.204140 0.402380 -0.215284 25.558087 6.141802 4.384607 16.075257 -12.838485 -175.169740 80.774968 178.638816 1.309044 -1.382631 -0.495790 0.785430 0.468620 0.052440 
0.121860 17.310340 -4.493140 -2.348350 -5.937445 -11.413085 -15.136399 12.869443 3.541090 1.575928 -6.310862 -25.288984 4.252258 8.336544 58.166064 -0.036961 10.569870 0.965358 0.265860 0.075950 -0.158350 18.430642 -10.229951 3.204684 3.082610 7.771316 -21.658360 -3.286627 -8.061715 58.677197 -1.742363 -8.822511 1.175290 0.181910 0.865630 0.701650 -3.788985 -2.104686 -8.114191 11.025602 -3.289183 41.135978 -7.666366 2.124897 11.544842 1.142755 -6.182001 -8.084306 -12.828923 0.922648 28.844353 0.889180 -3.265000 -34.946650 -2.715703 -22.329866 -3.821941 -2.034001 -35.396080 -6.459900 10.702539 -80.506741 -11.087414 -3.831521 2.728578 1.095020 0.234110 0.276750 0.407080 -0.729135 25.889852 9.070001 0.510675 17.412623 -8.307502 -106.283921 74.533367 -99.876987 1.886057 2.299815 -0.460820 0.786580 0.449260 0.056120 
0.099920 17.128190 -4.511910 -1.407070 -7.257038 -13.215884 -15.201930 12.811697 3.572498 1.031757 -6.455184 -24.735838 4.353612 9.177368 61.514934 0.100454 11.228456 0.740521 0.306950 0.136330 -0.116570 18.385187 -10.134021 3.247916 2.966364 8.503656 -21.364413 -4.052115 -8.129141 62.801884 -1.950696 -9.462587 0.985333 0.219660 0.824630 0.683370 -3.620301 -2.126860 -8.198997 9.266561 -1.746077 43.310813 -6.760145 3.621584 10.402304 1.317114 -6.182137 -6.834196 -12.688142 0.850735 29.961412 1.025830 -3.198410 -36.611310 -2.257917 -25.614028 -2.246606 -1.128667 -34.987591 -7.943352 14.141746 -74.400481 -12.467915 -3.812917 2.622170 1.151500 0.194710 0.328330 0.401240 -1.588430 30.399071 4.459485 2.198873 12.103575 -21.588378 117.600348 89.829797 122.554755 0.714621 1.725049 -0.470060 0.828310 0.437160 0.039020 
0.087090 16.924510 -4.514580 -1.205443 -7.725522 -13.904532 -15.266677 12.676720 3.761526 0.799975 -7.496782 -25.861977 4.712110 9.768486 65.924001 0.340186 11.986289 0.499004 0.309090 0.120390 -0.079340 18.367314 -9.867234 3.308363 3.492388 9.010862 -22.329560 -4.916765 -8.535891 67.277258 -2.167089 -10.139582 0.794459 0.175280 0.752600 0.683530 -3.512955 -2.398154 -8.378651 8.193343 -1.713330 45.262112 -6.460342 3.695658 8.774410 1.367848 -6.361437 -7.654516 -13.571979 1.462981 30.977001 1.219810 -2.689260 -38.179020 -2.458529 -26.752697 -2.228274 0.570856 -34.545761 -8.421461 8.601438 -68.479392 -7.209555 -3.764841 2.689607 1.203400 0.131270 0.381340 0.378620 -1.381859 31.889177 5.177278 1.058612 10.289802 -22.306357 -57.921338 89.610276 -53.019704 0.785746 1.168496 -0.445770 0.794880 0.422570 0.020350 
0.059880 16.765660 -4.498960 -0.502972 -8.843460 -14.998672 -15.326173 12.635234 3.904578 1.016702 -8.143946 -25.998889 3.810093 11.292655 69.271421 0.578389 12.708845 0.294500 0.288540 0.082990 -0.081420 18.331248 -9.675801 3.325099 3.876235 9.297421 -22.645073 -6.414158 -8.266298 71.083891 -2.336740 -10.665521 0.664155 0.122210 0.715100 0.674080 -3.376091 -2.698409 -8.529432 6.087519 -1.039888 47.391806 -5.597284 3.853832 6.687475 1.282089 -6.848878 -8.029776 -15.127263 2.116908 31.994586 2.132570 -2.555200 -39.547700 -2.864072 -26.733810 -1.775679 1.789378 -33.124252 -8.465259 4.165496 -64.136094 -3.719043 -3.717933 2.739307 1.250570 0.076470 0.413200 0.369750 -0.496437 32.661614 4.779730 -0.060697 10.108043 -22.579443 109.093564 88.164579 113.736494 0.706338 3.399337 -0.437330 0.778300 0.418680 0.017620 
0.037010 16.669340 -4.472750 -0.816123 -8.741588 -15.955423 -15.358994 12.689122 4.026820 1.961838 -8.989874 -25.782477 2.998855 12.362821 71.805685 0.795373 13.266917 0.176614 0.199040 -0.039700 -0.122790 18.312813 -9.515827 3.252885 4.659518 8.773799 -22.218760 -7.375293 -8.426078 73.203927 -2.417553 -10.973990 0.614271 0.022860 0.721370 0.647250 -3.311626 -3.166447 -8.570723 5.424501 -2.112520 49.325960 -5.211096 2.748752 7.235321 1.201874 -7.408702 -10.910955 -17.010563 2.874222 32.118778 2.735680 -2.661850 -39.696720 -2.862629 -25.412491 -2.544044 3.423441 -30.071081 -9.480526 3.365883 -63.703838 -2.982513 -3.651642 2.729253 1.268260 0.047440 0.398690 0.349380 -0.000992 31.296266 11.054096 -2.987735 10.596348 -13.633829 -115.149133 71.406342 -111.349776 1.788505 -0.308200 -0.452450 0.771950 0.443790 0.020640 
